<svg width="180" height="53" viewBox="0 0 180 53" fill="none" xmlns="http://www.w3.org/2000/svg">
<g id="Group">
<path id="BG" d="M173.333 52.5017H6.66667C3.00167 52.5017 0 49.5751 0 46.0017V7.00171C0 3.42834 3.00167 0.501712 6.66667 0.501712H173.333C176.998 0.501712 180 3.42834 180 7.00171V46.0017C180 49.5751 176.998 52.5017 173.333 52.5017Z" fill="black"/>
<path id="Border" d="M173.333 1.54333C176.42 1.54333 178.932 3.99221 178.932 7.00171V46.0017C178.932 49.0112 176.42 51.4601 173.333 51.4601H6.66667C3.58 51.4601 1.06833 49.0112 1.06833 46.0017V7.00171C1.06833 3.99221 3.58 1.54333 6.66667 1.54333H173.333ZM173.333 0.501712H6.66667C3.00167 0.501712 0 3.42834 0 7.00171V46.0017C0 49.5751 3.00167 52.5017 6.66667 52.5017H173.333C176.998 52.5017 180 49.5751 180 46.0017V7.00171C180 3.42834 176.998 0.501712 173.333 0.501712Z" fill="#A6A6A6"/>
<g id="Icon">
<path id="Vector" d="M13.9134 10.3022C13.5217 10.7019 13.295 11.3243 13.295 12.1303V40.8798C13.295 41.6858 13.5217 42.3082 13.9134 42.7079L14.01 42.7957L30.5334 26.6919V26.3117L14.01 10.2079L13.9134 10.3022Z" fill="url(#paint0_linear_1_86)"/>
<path id="Vector_2" d="M36.035 32.0625L30.5333 26.6919V26.3116L36.0417 20.941L36.165 21.0109L42.6883 24.6298C44.55 25.6567 44.55 27.3468 42.6883 28.3803L36.165 31.9926L36.035 32.0625Z" fill="url(#paint1_linear_1_86)"/>
<path id="Vector_3" d="M36.165 31.9927L30.5333 26.5018L13.9133 42.7079C14.5317 43.3417 15.54 43.418 16.6867 42.7843L36.165 31.9927Z" fill="url(#paint2_linear_1_86)"/>
<path id="Vector_4" d="M36.165 21.0108L16.6867 10.2192C15.54 9.59196 14.5317 9.66834 13.9133 10.3021L30.5333 26.5017L36.165 21.0108Z" fill="url(#paint3_linear_1_86)"/>
</g>
<g id="GET IT ON">
<path id="G" d="M63.2233 13.8186C63.2233 14.9041 62.89 15.7735 62.2333 16.4219C61.4783 17.1905 60.495 17.5773 59.29 17.5773C58.1383 17.5773 57.155 17.184 56.3483 16.4089C55.54 15.6224 55.1367 14.6571 55.1367 13.5018C55.1367 12.3464 55.54 11.3811 56.3483 10.6011C57.155 9.81952 58.1383 9.42627 59.29 9.42627C59.8633 9.42627 60.41 9.54164 60.9317 9.75614C61.4517 9.97227 61.875 10.2648 62.1817 10.6255L61.485 11.3113C60.95 10.6954 60.2217 10.3915 59.29 10.3915C58.45 10.3915 57.7217 10.6775 57.1033 11.2544C56.4917 11.8329 56.185 12.582 56.185 13.5018C56.185 14.4215 56.4917 15.1771 57.1033 15.7556C57.7217 16.326 58.45 16.6185 59.29 16.6185C60.1817 16.6185 60.9317 16.326 61.5233 15.7491C61.9133 15.3673 62.135 14.8408 62.1933 14.168H59.29V13.2288H63.1633C63.21 13.4319 63.2233 13.6285 63.2233 13.8186Z" fill="white" stroke="white" stroke-width="0.16" stroke-miterlimit="10"/>
<path id="E" d="M69.3683 10.5621H65.73V13.0321H69.01V13.9714H65.73V16.4414H69.3683V17.3985H64.7V9.60498H69.3683V10.5621Z" fill="white" stroke="white" stroke-width="0.16" stroke-miterlimit="10"/>
<path id="T" d="M73.705 17.3985H72.675V10.5621H70.4433V9.60498H75.9383V10.5621H73.705V17.3985Z" fill="white" stroke="white" stroke-width="0.16" stroke-miterlimit="10"/>
<path id="I" d="M79.915 17.3985V9.60498H80.9433V17.3985H79.915Z" fill="white" stroke="white" stroke-width="0.16" stroke-miterlimit="10"/>
<path id="T_2" d="M85.5016 17.3985H84.48V10.5621H82.24V9.60498H87.7416V10.5621H85.5016V17.3985Z" fill="white" stroke="white" stroke-width="0.16" stroke-miterlimit="10"/>
<path id="O" d="M98.145 16.3959C97.3566 17.184 96.38 17.5773 95.215 17.5773C94.0433 17.5773 93.0666 17.184 92.2783 16.3959C91.4916 15.6094 91.1 14.6441 91.1 13.5018C91.1 12.3594 91.4916 11.3941 92.2783 10.6076C93.0666 9.81952 94.0433 9.42627 95.215 9.42627C96.3733 9.42627 97.35 9.81952 98.1383 10.6141C98.9317 11.4071 99.3233 12.3659 99.3233 13.5018C99.3233 14.6441 98.9316 15.6094 98.145 16.3959ZM93.04 15.7426C93.6333 16.326 94.355 16.6185 95.215 16.6185C96.0683 16.6185 96.7966 16.326 97.3833 15.7426C97.975 15.1593 98.275 14.4101 98.275 13.5018C98.275 12.5934 97.975 11.8443 97.3833 11.2609C96.7966 10.6775 96.0683 10.385 95.215 10.385C94.355 10.385 93.6333 10.6775 93.04 11.2609C92.4483 11.8443 92.1483 12.5934 92.1483 13.5018C92.1483 14.4101 92.4483 15.1593 93.04 15.7426Z" fill="white" stroke="white" stroke-width="0.16" stroke-miterlimit="10"/>
<path id="N" d="M100.768 17.3985V9.60498H102.018L105.905 15.6662H105.95L105.905 14.168V9.60498H106.933V17.3985H105.86L101.79 11.0382H101.745L101.79 12.543V17.3985H100.768Z" fill="white" stroke="white" stroke-width="0.16" stroke-miterlimit="10"/>
</g>
<g id="Google Play">
<path id="Google Play_2" d="M90.8467 28.78C87.715 28.78 85.1567 31.1037 85.1567 34.3099C85.1567 37.49 87.715 39.8381 90.8467 39.8381C93.985 39.8381 96.5433 37.49 96.5433 34.3099C96.5433 31.1037 93.985 28.78 90.8467 28.78ZM90.8467 37.6606C89.1283 37.6606 87.65 36.2777 87.65 34.3099C87.65 32.316 89.1283 30.9575 90.8467 30.9575C92.565 30.9575 94.05 32.316 94.05 34.3099C94.05 36.2777 92.565 37.6606 90.8467 37.6606ZM78.4317 28.78C75.2933 28.78 72.7417 31.1037 72.7417 34.3099C72.7417 37.49 75.2933 39.8381 78.4317 39.8381C81.5683 39.8381 84.1217 37.49 84.1217 34.3099C84.1217 31.1037 81.5683 28.78 78.4317 28.78ZM78.4317 37.6606C76.7117 37.6606 75.2283 36.2777 75.2283 34.3099C75.2283 32.316 76.7117 30.9575 78.4317 30.9575C80.15 30.9575 81.6283 32.316 81.6283 34.3099C81.6283 36.2777 80.15 37.6606 78.4317 37.6606ZM63.6583 30.4749V32.8246H69.4133C69.245 34.1376 68.795 35.1029 68.105 35.7756C67.265 36.5881 65.9567 37.49 63.6583 37.49C60.1167 37.49 57.3433 34.7031 57.3433 31.25C57.3433 27.7969 60.1167 25.01 63.6583 25.01C65.5733 25.01 66.9667 25.7396 67.995 26.6854L69.6933 25.0295C68.255 23.6905 66.3417 22.6619 63.6583 22.6619C58.8017 22.6619 54.72 26.5147 54.72 31.25C54.72 35.9852 58.8017 39.8381 63.6583 39.8381C66.2833 39.8381 68.255 38.9996 69.805 37.4266C71.3933 35.878 71.8883 33.7005 71.8883 31.9422C71.8883 31.3962 71.8417 30.8941 71.7583 30.4749H63.6583ZM124.068 32.2965C123.6 31.0599 122.155 28.78 119.212 28.78C116.295 28.78 113.867 31.0209 113.867 34.3099C113.867 37.4071 116.27 39.8381 119.492 39.8381C122.097 39.8381 123.6 38.2895 124.218 37.3876L122.285 36.1315C121.64 37.0512 120.762 37.6606 119.492 37.6606C118.23 37.6606 117.325 37.0967 116.745 35.9852L124.33 32.9254L124.068 32.2965ZM116.335 34.1376C116.27 32.0056 118.033 30.9136 119.297 30.9136C120.287 30.9136 121.127 31.3962 121.407 32.0869L116.335 34.1376ZM110.17 39.5017H112.663V23.2517H110.17V39.5017ZM106.087 30.0117H106.003C105.443 29.365 104.375 28.78 103.022 28.78C100.182 28.78 97.585 31.211 97.585 34.3277C97.585 37.4266 100.182 39.8381 103.022 39.8381C104.375 39.8381 105.443 39.2482 106.003 38.582H106.087V39.375C106.087 41.4891 104.928 42.625 103.06 42.625C101.537 42.625 100.592 41.5525 100.202 40.6506L98.0333 41.533C98.6583 42.9987 100.313 44.8025 103.06 44.8025C105.983 44.8025 108.45 43.1255 108.45 39.0451V29.1164H106.087V30.0117ZM103.235 37.6606C101.517 37.6606 100.078 36.2582 100.078 34.3277C100.078 32.3794 101.517 30.9575 103.235 30.9575C104.928 30.9575 106.263 32.3794 106.263 34.3277C106.263 36.2582 104.928 37.6606 103.235 37.6606ZM135.742 23.2517H129.778V39.5017H132.265V33.3446H135.742C138.503 33.3446 141.212 31.3962 141.212 28.2974C141.212 25.2001 138.497 23.2517 135.742 23.2517ZM135.807 31.0842H132.265V25.5121H135.807C137.663 25.5121 138.723 27.0152 138.723 28.2974C138.723 29.5551 137.663 31.0842 135.807 31.0842ZM151.178 28.7491C149.382 28.7491 147.513 29.5226 146.745 31.237L148.952 32.1389C149.427 31.237 150.3 30.9445 151.223 30.9445C152.513 30.9445 153.822 31.7001 153.842 33.0342V33.2049C153.392 32.9514 152.428 32.576 151.243 32.576C148.867 32.576 146.445 33.8516 146.445 36.2322C146.445 38.4097 148.392 39.8121 150.58 39.8121C152.253 39.8121 153.177 39.076 153.757 38.2196H153.842V39.4757H156.243V33.2422C156.243 30.3611 154.037 28.7491 151.178 28.7491ZM150.878 37.6541C150.065 37.6541 148.932 37.2609 148.932 36.2777C148.932 35.02 150.345 34.5374 151.568 34.5374C152.663 34.5374 153.177 34.773 153.842 35.0834C153.647 36.5881 152.318 37.6541 150.878 37.6541ZM164.993 29.105L162.135 36.1494H162.05L159.095 29.105H156.413L160.853 38.9492L158.32 44.4271H160.918L167.76 29.105H164.993ZM142.578 39.5017H145.072V23.2517H142.578V39.5017Z" fill="white"/>
</g>
</g>
<defs>
<linearGradient id="paint0_linear_1_86" x1="29.0663" y1="41.1792" x2="7.25617" y2="18.8098" gradientUnits="userSpaceOnUse">
<stop stop-color="#00A0FF"/>
<stop offset="0.0066" stop-color="#00A1FF"/>
<stop offset="0.2601" stop-color="#00BEFF"/>
<stop offset="0.5122" stop-color="#00D2FF"/>
<stop offset="0.7604" stop-color="#00DFFF"/>
<stop offset="1" stop-color="#00E3FF"/>
</linearGradient>
<linearGradient id="paint1_linear_1_86" x1="45.1125" y1="26.4999" x2="12.85" y2="26.4999" gradientUnits="userSpaceOnUse">
<stop stop-color="#FFE000"/>
<stop offset="0.4087" stop-color="#FFBD00"/>
<stop offset="0.7754" stop-color="#FFA500"/>
<stop offset="1" stop-color="#FF9C00"/>
</linearGradient>
<linearGradient id="paint2_linear_1_86" x1="33.1027" y1="23.5169" x2="3.52635" y2="-6.8178" gradientUnits="userSpaceOnUse">
<stop stop-color="#FF3A44"/>
<stop offset="1" stop-color="#C31162"/>
</linearGradient>
<linearGradient id="paint3_linear_1_86" x1="9.72973" y1="52.2727" x2="22.9369" y2="38.727" gradientUnits="userSpaceOnUse">
<stop stop-color="#32A071"/>
<stop offset="0.0685" stop-color="#2DA771"/>
<stop offset="0.4762" stop-color="#15CF74"/>
<stop offset="0.8009" stop-color="#06E775"/>
<stop offset="1" stop-color="#00F076"/>
</linearGradient>
</defs>
</svg>
