<svg xmlns="http://www.w3.org/2000/svg" width="52" height="64.19" viewBox="0 0 52 64.19">
  <g id="Group_16" data-name="Group 16" transform="translate(-1053 -1268.81)">
    <circle id="Oval" cx="26" cy="26" r="26" transform="translate(1053 1281)" fill="#dff0fb"/>
    <g id="Iconly_Light-outline_Location" data-name="Iconly/Light-outline/Location" transform="translate(1062.769 1268.81)">
      <g id="Location" transform="translate(0 0)">
        <path id="Location-2" data-name="Location" d="M14.348,37.584l-.115-.091-.789-.531a39.637,39.637,0,0,1-8.658-8.127l-.6-.789A20.432,20.432,0,0,1,0,16.281l.009-.545A16.254,16.254,0,0,1,16.23,0h.055l.488.009A16.261,16.261,0,0,1,32.461,16.331v.2c-.1,5.04-2.552,10.253-7.1,15.07a40.425,40.425,0,0,1-7.151,5.908l-.095.079a3.225,3.225,0,0,1-3.765,0ZM15.817,2.9A13.364,13.364,0,0,0,2.889,16.23l.036.682A17.542,17.542,0,0,0,6.486,26.3a36.6,36.6,0,0,0,9.361,8.792l.156.119a.345.345,0,0,0,.455,0l.162-.122a37.459,37.459,0,0,0,6.651-5.491c4.04-4.277,6.219-8.806,6.3-13.1l-.007-.634A13.362,13.362,0,0,0,16.276,2.9ZM10.046,16.515a6.183,6.183,0,1,1,6.183,6.2A6.2,6.2,0,0,1,10.046,16.515Zm2.889,0a3.294,3.294,0,1,0,3.294-3.3A3.3,3.3,0,0,0,12.935,16.515Z" fill="#115a8e"/>
      </g>
    </g>
  </g>
</svg>
