<svg xmlns="http://www.w3.org/2000/svg" width="52" height="62" viewBox="0 0 52 62">
  <g id="Group_14" data-name="Group 14" transform="translate(-159 -1271)">
    <circle id="Oval" cx="26" cy="26" r="26" transform="translate(159 1281)" fill="#fff4eb"/>
    <g id="Iconly_Light-outline_Voice_2" data-name="Iconly/Light-outline/Voice 2" transform="translate(169 1271)">
      <g id="Voice_2" data-name="Voice 2" transform="translate(0)">
        <path id="Voice_2-2" data-name="Voice 2" d="M14.542,38.7l-.014-.205v-4.2A16.224,16.224,0,0,1,0,18a1.488,1.488,0,0,1,1.472-1.5A1.488,1.488,0,0,1,2.943,18,13.206,13.206,0,0,0,16,31.349,13.208,13.208,0,0,0,29.057,18,1.472,1.472,0,1,1,32,18,16.226,16.226,0,0,1,17.471,34.29v4.2a1.469,1.469,0,0,1-2.929.205Zm1.21-11.869A8.761,8.761,0,0,1,7.1,17.982V8.849A8.761,8.761,0,0,1,15.752,0h.495A8.763,8.763,0,0,1,24.9,8.849v9.133a8.763,8.763,0,0,1-8.654,8.849ZM10.042,8.849v9.133a5.782,5.782,0,0,0,5.71,5.839h.495a5.783,5.783,0,0,0,5.711-5.839v-.254H17.825a1.507,1.507,0,0,1-.2-3l.2-.014h4.133V11.364H19.694a1.507,1.507,0,0,1-.2-3l.2-.014h2.244A5.771,5.771,0,0,0,16.247,3.01h-.495A5.782,5.782,0,0,0,10.042,8.849Z" transform="translate(0)" fill="#fa974a"/>
      </g>
    </g>
  </g>
</svg>
