<svg xmlns="http://www.w3.org/2000/svg" width="52" height="62" viewBox="0 0 52 62">
  <g id="Group_19" data-name="Group 19" transform="translate(-457 -1271)">
    <circle id="Oval" cx="26" cy="26" r="26" transform="translate(457 1281)" fill="#dff0fb"/>
    <g id="Group_18" data-name="Group 18" transform="translate(-42)">
      <g id="Rectangle_1" data-name="Rectangle 1" transform="translate(504 1271)" fill="none" stroke="#115a8e" stroke-width="2.5">
        <rect width="42" height="34" rx="8" stroke="none"/>
        <rect x="1.25" y="1.25" width="39.5" height="31.5" rx="6.75" fill="none"/>
      </g>
      <g id="Polygon_1" data-name="Polygon 1" transform="translate(518.076 1285.976) rotate(-30)" fill="none">
        <path d="M4.361.429a.3.3,0,0,1,.514,0L8.965,7.244a.3.3,0,0,1-.257.454H.53a.3.3,0,0,1-.257-.454Z" stroke="none"/>
        <path d="M 4.61871337890625 0.2830929756164551 C 4.519218444824219 0.2830929756164551 4.419723510742188 0.3316454887390137 4.36146354675293 0.4287505149841309 L 0.272613525390625 7.243510246276855 C 0.1526336669921875 7.443460464477539 0.2966737747192383 7.697860240936279 0.5298538208007812 7.697860240936279 L 8.707572937011719 7.697860240936279 C 8.940752983093262 7.697860240936279 9.084793090820312 7.443460464477539 8.964813232421875 7.243510246276855 L 4.87596321105957 0.4287505149841309 C 4.817703247070312 0.3316454887390137 4.718208312988281 0.2830929756164551 4.61871337890625 0.2830929756164551 M 4.61871337890625 -2.216909408569336 C 5.596633434295654 -2.216909408569336 6.516653060913086 -1.695969581604004 7.019753456115723 -0.8573894500732422 L 11.10854339599609 5.957270622253418 C 11.62656307220459 6.820550441741943 11.64022350311279 7.901180267333984 11.1441535949707 8.777370452880859 C 10.64808368682861 9.653560638427734 9.714443206787109 10.19786071777344 8.707572937011719 10.19786071777344 L 0.5298538208007812 10.19786071777344 C -0.4770164489746094 10.19786071777344 -1.410656929016113 9.653560638427734 -1.906726837158203 8.777370452880859 C -2.402796745300293 7.901180267333984 -2.38913631439209 6.820550441741943 -1.871076583862305 5.95719051361084 L 2.217733383178711 -0.8574895858764648 C 2.720773220062256 -1.695969581604004 3.640793323516846 -2.216909408569336 4.61871337890625 -2.216909408569336 Z" stroke="none" fill="#115a8e"/>
      </g>
    </g>
  </g>
</svg>
