<svg xmlns="http://www.w3.org/2000/svg" width="52" height="64.326" viewBox="0 0 52 64.326">
  <g id="Group_15" data-name="Group 15" transform="translate(-755 -1268.674)">
    <circle id="Oval" cx="26" cy="26" r="26" transform="translate(755 1281)" fill="#fff4eb"/>
    <g id="Iconly_Light-outline_Paper" data-name="Iconly/Light-outline/Paper" transform="translate(764.731 1268.674)">
      <g id="Paper" transform="translate(0 0)">
        <path id="Paper-2" data-name="Paper" d="M8.746,38.327A8.778,8.778,0,0,1,0,29.334V8.665a8.512,8.512,0,0,1,2.593-6.1A8.741,8.741,0,0,1,8.746.023H20.687a1.43,1.43,0,0,1,.506,0h.249a1.432,1.432,0,0,1,1.032.445l9.663,10.179a1.459,1.459,0,0,1,.4,1V29.334a8.9,8.9,0,0,1-8.547,8.993Zm0-35.409A5.9,5.9,0,0,0,2.863,8.665V29.334a6.2,6.2,0,0,0,1.7,4.338,5.762,5.762,0,0,0,4.189,1.761H23.991a5.514,5.514,0,0,0,3.988-1.825,6.345,6.345,0,0,0,1.7-4.273l0-15.861L28,13.478c-.637,0-1.362,0-2.167,0a6.374,6.374,0,0,1-6.318-6.051l-.01-.363V2.916ZM22.372,7.06a3.5,3.5,0,0,0,3.472,3.52h2.263L22.372,4.54ZM10.28,27.6a1.448,1.448,0,0,1-.194-2.881l.194-.012h10.3a1.448,1.448,0,0,1,.194,2.881l-.194.012Zm0-9.554a1.448,1.448,0,0,1-.194-2.881l.194-.014h6.4a1.448,1.448,0,0,1,.194,2.881l-.194.014Z" transform="translate(0 0)" fill="#fa974a"/>
      </g>
    </g>
  </g>
</svg>
