<svg width="180" height="53" viewBox="0 0 180 53" fill="none" xmlns="http://www.w3.org/2000/svg">
<g id="Group">
<path id="BG" d="M179 46.5048C179 49.276 176.709 51.5206 173.874 51.5206H6.13243C3.2995 51.5206 1 49.276 1 46.5048V6.50528C1 3.73545 3.2995 1.48291 6.13243 1.48291H173.873C176.709 1.48291 178.999 3.73545 178.999 6.50528L179 46.5048Z" fill="black"/>
<path id="Border" d="M173.333 1.54333C176.42 1.54333 178.932 3.99221 178.932 7.00171V46.0017C178.932 49.0112 176.42 51.4601 173.333 51.4601H6.66667C3.58 51.4601 1.06833 49.0112 1.06833 46.0017V7.00171C1.06833 3.99221 3.58 1.54333 6.66667 1.54333H173.333ZM173.333 0.501712H6.66667C3.00167 0.501712 0 3.42834 0 7.00171V46.0017C0 49.5751 3.00167 52.5017 6.66667 52.5017H173.333C176.998 52.5017 180 49.5751 180 46.0017V7.00171C180 3.42834 176.998 0.501712 173.333 0.501712Z" fill="#A6A6A6"/>
<g id="Icon">
<g id="Vector">
<path d="M40.1707 26.2208C40.132 22.0309 43.6893 19.9925 43.852 19.8976C41.8373 17.0337 38.7147 16.6424 37.6173 16.6112C34.9947 16.3421 32.4507 18.1413 31.1147 18.1413C29.752 18.1413 27.6947 16.6372 25.4773 16.6814C22.624 16.7243 19.9547 18.335 18.4907 20.8362C15.4693 25.9361 17.7227 33.4306 20.6173 37.5529C22.0653 39.5718 23.7573 41.826 25.972 41.7467C28.1387 41.6596 28.948 40.3999 31.5627 40.3999C34.1533 40.3999 34.9133 41.7467 37.172 41.696C39.4973 41.6596 40.9613 39.668 42.3587 37.6309C44.032 35.3169 44.704 33.038 44.7307 32.921C44.676 32.9028 40.2147 31.2427 40.1707 26.2208Z" fill="white"/>
<path d="M35.904 13.8994C37.0693 12.4785 37.8667 10.5454 37.6453 8.58374C35.9587 8.65654 33.8493 9.72124 32.6347 11.1109C31.56 12.3355 30.6 14.3427 30.848 16.2303C32.7427 16.3681 34.688 15.2982 35.904 13.8994Z" fill="white"/>
</g>
</g>
<g id="Download on the">
<path id="D" d="M65.4 13.5133C65.4 15.0434 64.9294 16.1952 63.9894 16.9687C63.1187 17.6824 61.8814 18.0399 60.2787 18.0399C59.484 18.0399 58.804 18.0061 58.2347 17.9385V9.57817C58.9773 9.46117 59.7773 9.40137 60.6413 9.40137C62.168 9.40137 63.3187 9.72507 64.0947 10.3725C64.964 11.1044 65.4 12.1509 65.4 13.5133ZM63.9267 13.551C63.9267 12.5591 63.6574 11.7986 63.1187 11.2682C62.58 10.7391 61.7934 10.4739 60.7574 10.4739C60.3174 10.4739 59.9427 10.5025 59.632 10.5623V16.918C59.804 16.944 60.1187 16.9557 60.576 16.9557C61.6454 16.9557 62.4707 16.6658 63.052 16.086C63.6334 15.5062 63.9267 14.6612 63.9267 13.551Z" fill="white"/>
<path id="o" d="M73.212 14.8496C73.212 15.7921 72.936 16.5643 72.384 17.1701C71.8054 17.7928 71.0387 18.1035 70.0814 18.1035C69.1587 18.1035 68.424 17.8058 67.876 17.2078C67.3294 16.6111 67.056 15.8584 67.056 14.951C67.056 14.002 67.3374 13.2233 67.9027 12.6188C68.468 12.0143 69.228 11.7114 70.1854 11.7114C71.108 11.7114 71.8494 12.0091 72.4107 12.6058C72.944 13.1856 73.212 13.9344 73.212 14.8496ZM71.7627 14.8938C71.7627 14.3283 71.6374 13.8434 71.388 13.4391C71.0947 12.9503 70.6774 12.7059 70.1347 12.7059C69.5734 12.7059 69.1467 12.9503 68.8534 13.4391C68.6027 13.8434 68.4787 14.3361 68.4787 14.9185C68.4787 15.484 68.604 15.9689 68.8534 16.3732C69.156 16.862 69.5774 17.1064 70.1214 17.1064C70.6547 17.1064 71.0734 16.8581 71.3747 16.3602C71.6334 15.9481 71.7627 15.4593 71.7627 14.8938Z" fill="white"/>
<path id="w" d="M83.6867 11.8364L81.72 17.9646H80.44L79.6253 15.3035C79.4187 14.6392 79.2507 13.9788 79.12 13.3236H79.0947C78.9733 13.997 78.8053 14.6561 78.5893 15.3035L77.724 17.9646H76.4293L74.58 11.8364H76.016L76.7267 14.7497C76.8987 15.4387 77.04 16.0952 77.1533 16.7166H77.1787C77.2827 16.2044 77.4547 15.5518 77.6973 14.7627L78.5893 11.8377H79.728L80.5827 14.7003C80.7893 15.3984 80.9573 16.0705 81.0867 16.7179H81.1253C81.22 16.0874 81.3627 15.4153 81.552 14.7003L82.3147 11.8377H83.6867V11.8364Z" fill="white"/>
<path id="n" d="M90.9307 17.9644H89.5333V14.4544C89.5333 13.3728 89.112 12.832 88.2667 12.832C87.852 12.832 87.5173 12.9802 87.2574 13.2779C87 13.5756 86.8694 13.9266 86.8694 14.3283V17.9631H85.472V13.5873C85.472 13.0491 85.4547 12.4654 85.4214 11.8336H86.6494L86.7147 12.7917H86.7534C86.916 12.494 87.1587 12.2483 87.4774 12.052C87.856 11.8232 88.28 11.7075 88.744 11.7075C89.3307 11.7075 89.8187 11.8921 90.2067 12.2626C90.6893 12.7163 90.9307 13.3936 90.9307 14.2932V17.9644Z" fill="white"/>
<path id="l" d="M94.784 17.9645H93.388V9.02441H94.784V17.9645Z" fill="white"/>
<path id="o_2" d="M103.011 14.8496C103.011 15.7921 102.735 16.5643 102.183 17.1701C101.604 17.7928 100.836 18.1035 99.88 18.1035C98.956 18.1035 98.2213 17.8058 97.6747 17.2078C97.128 16.6111 96.8547 15.8584 96.8547 14.951C96.8547 14.002 97.136 13.2233 97.7013 12.6188C98.2667 12.0143 99.0267 11.7114 99.9827 11.7114C100.907 11.7114 101.647 12.0091 102.209 12.6058C102.743 13.1856 103.011 13.9344 103.011 14.8496ZM101.56 14.8938C101.56 14.3283 101.435 13.8434 101.185 13.4391C100.893 12.9503 100.475 12.7059 99.9333 12.7059C99.3707 12.7059 98.944 12.9503 98.652 13.4391C98.4013 13.8434 98.2773 14.3361 98.2773 14.9185C98.2773 15.484 98.4027 15.9689 98.652 16.3732C98.9547 16.862 99.376 17.1064 99.92 17.1064C100.453 17.1064 100.871 16.8581 101.172 16.3602C101.432 15.9481 101.56 15.4593 101.56 14.8938Z" fill="white"/>
<path id="a" d="M109.773 17.9644H108.519L108.415 17.2585H108.376C107.947 17.8214 107.335 18.1035 106.54 18.1035C105.947 18.1035 105.467 17.9176 105.105 17.5484C104.777 17.213 104.613 16.7957 104.613 16.3004C104.613 15.5516 104.933 14.9809 105.577 14.5857C106.22 14.1905 107.124 13.9968 108.288 14.0059V13.8915C108.288 13.0842 107.853 12.6812 106.983 12.6812C106.363 12.6812 105.816 12.8333 105.344 13.1349L105.06 12.2405C105.644 11.8882 106.365 11.7114 107.216 11.7114C108.859 11.7114 109.683 12.5564 109.683 14.2464V16.5032C109.683 17.1155 109.713 17.603 109.773 17.9644ZM108.323 15.8584V14.9133C106.781 14.8873 106.011 15.2994 106.011 16.1483C106.011 16.4681 106.099 16.7073 106.279 16.8672C106.459 17.0271 106.688 17.1064 106.961 17.1064C107.268 17.1064 107.555 17.0115 107.816 16.823C108.079 16.6332 108.24 16.3927 108.3 16.0976C108.315 16.0313 108.323 15.9507 108.323 15.8584Z" fill="white"/>
<path id="d" d="M117.713 17.9645H116.473L116.408 16.9804H116.369C115.973 17.7292 115.299 18.1036 114.351 18.1036C113.593 18.1036 112.963 17.8137 112.463 17.2339C111.963 16.6541 111.713 15.9014 111.713 14.9771C111.713 13.9852 111.984 13.1818 112.528 12.5682C113.055 11.9962 113.7 11.7102 114.468 11.7102C115.312 11.7102 115.903 11.9871 116.239 12.5422H116.265V9.02441H117.664V16.3135C117.664 16.9102 117.68 17.4601 117.713 17.9645ZM116.265 15.3801V14.3583C116.265 14.1815 116.252 14.0385 116.227 13.9293C116.148 13.6017 115.979 13.3261 115.721 13.1038C115.461 12.8815 115.148 12.7697 114.787 12.7697C114.265 12.7697 113.857 12.9712 113.557 13.3755C113.26 13.7798 113.109 14.2959 113.109 14.9264C113.109 15.5322 113.252 16.0236 113.539 16.4019C113.841 16.8049 114.249 17.0064 114.76 17.0064C115.219 17.0064 115.585 16.8387 115.864 16.502C116.133 16.1913 116.265 15.8169 116.265 15.3801Z" fill="white"/>
<path id="o_3" d="M129.664 14.8496C129.664 15.7921 129.388 16.5643 128.836 17.1701C128.257 17.7928 127.492 18.1035 126.533 18.1035C125.612 18.1035 124.877 17.8058 124.328 17.2078C123.781 16.6111 123.508 15.8584 123.508 14.951C123.508 14.002 123.789 13.2233 124.355 12.6188C124.92 12.0143 125.68 11.7114 126.639 11.7114C127.56 11.7114 128.303 12.0091 128.863 12.6058C129.396 13.1856 129.664 13.9344 129.664 14.8496ZM128.216 14.8938C128.216 14.3283 128.091 13.8434 127.841 13.4391C127.547 12.9503 127.131 12.7059 126.587 12.7059C126.027 12.7059 125.6 12.9503 125.305 13.4391C125.055 13.8434 124.931 14.3361 124.931 14.9185C124.931 15.484 125.056 15.9689 125.305 16.3732C125.608 16.862 126.029 17.1064 126.573 17.1064C127.107 17.1064 127.527 16.8581 127.828 16.3602C128.085 15.9481 128.216 15.4593 128.216 14.8938Z" fill="white"/>
<path id="n_2" d="M137.177 17.9644H135.781V14.4544C135.781 13.3728 135.36 12.832 134.513 12.832C134.099 12.832 133.764 12.9802 133.505 13.2779C133.247 13.5756 133.117 13.9266 133.117 14.3283V17.9631H131.719V13.5873C131.719 13.0491 131.703 12.4654 131.669 11.8336H132.896L132.961 12.7917H133C133.164 12.494 133.407 12.2483 133.724 12.052C134.104 11.8232 134.527 11.7075 134.992 11.7075C135.577 11.7075 136.065 11.8921 136.453 12.2626C136.937 12.7163 137.177 13.3936 137.177 14.2932V17.9644Z" fill="white"/>
<path id="t" d="M146.581 12.8568H145.043V15.8338C145.043 16.5904 145.316 16.9687 145.857 16.9687C146.108 16.9687 146.316 16.9479 146.48 16.905L146.516 17.9385C146.24 18.0399 145.877 18.0906 145.431 18.0906C144.879 18.0906 144.449 17.9268 144.139 17.5992C143.827 17.2716 143.672 16.7204 143.672 15.9469V12.8568H142.753V11.8363H143.672V10.7131L145.041 10.3101V11.835H146.58V12.8568H146.581Z" fill="white"/>
<path id="h" d="M153.979 17.9645H152.58V14.4805C152.58 13.382 152.159 12.8321 151.315 12.8321C150.667 12.8321 150.224 13.1506 149.981 13.7876C149.94 13.9215 149.916 14.0853 149.916 14.2777V17.9632H148.52V9.02441H149.916V12.7177H149.943C150.383 12.0456 151.013 11.7102 151.831 11.7102C152.409 11.7102 152.888 11.8948 153.268 12.2653C153.741 12.7268 153.979 13.4132 153.979 14.3206V17.9645Z" fill="white"/>
<path id="e" d="M161.609 14.6104C161.609 14.8548 161.591 15.0602 161.557 15.2279H157.367C157.385 15.8337 157.585 16.2952 157.973 16.615C158.328 16.901 158.785 17.044 159.345 17.044C159.965 17.044 160.531 16.9478 161.04 16.7541L161.259 17.7005C160.663 17.9527 159.961 18.0788 159.149 18.0788C158.176 18.0788 157.409 17.7993 156.855 17.2403C156.297 16.6813 156.021 15.9312 156.021 14.99C156.021 14.0657 156.279 13.2961 156.797 12.6825C157.339 12.0273 158.071 11.6997 158.995 11.6997C159.899 11.6997 160.585 12.0273 161.049 12.6825C161.424 13.2025 161.609 13.846 161.609 14.6104ZM160.276 14.2581C160.287 13.8538 160.195 13.5054 160.005 13.2116C159.763 12.8333 159.393 12.6435 158.893 12.6435C158.437 12.6435 158.065 12.8281 157.781 13.1986C157.549 13.4937 157.412 13.846 157.367 14.2581H160.276Z" fill="white"/>
</g>
<g id="App Store">
<path id="A" d="M71.5267 41.4569H68.4987L66.84 36.3752H61.0747L59.4947 41.4569H56.5467L62.2587 24.1565H65.7867L71.5267 41.4569ZM66.34 34.2432L64.84 29.7257C64.6813 29.2642 64.384 28.1774 63.9453 26.4666H63.892C63.7173 27.2024 63.436 28.2892 63.0493 29.7257L61.576 34.2432H66.34Z" fill="white"/>
<path id="p" d="M86.216 35.0662C86.216 37.1878 85.628 38.8648 84.452 40.0959C83.3987 41.1918 82.0907 41.7391 80.5293 41.7391C78.844 41.7391 77.6333 41.1489 76.896 39.9685H76.8427V46.54H74V33.0889C74 31.7551 73.964 30.3862 73.8947 28.9822H76.3947L76.5533 30.9595H76.6067C77.5547 29.4697 78.9933 28.7261 80.924 28.7261C82.4333 28.7261 83.6933 29.3072 84.7013 30.4707C85.712 31.6355 86.216 33.1669 86.216 35.0662ZM83.32 35.1676C83.32 33.9534 83.04 32.9524 82.4773 32.1646C81.8627 31.343 81.0373 30.9322 80.0027 30.9322C79.3013 30.9322 78.664 31.161 78.0947 31.6121C77.524 32.0671 77.1506 32.6612 76.976 33.397C76.888 33.7402 76.844 34.021 76.844 34.242V36.322C76.844 37.2294 77.1293 37.9951 77.7 38.6204C78.2707 39.2457 79.012 39.5577 79.924 39.5577C80.9947 39.5577 81.828 39.1547 82.424 38.3513C83.0213 37.5466 83.32 36.4858 83.32 35.1676Z" fill="white"/>
<path id="p_2" d="M100.932 35.0662C100.932 37.1878 100.344 38.8648 99.1667 40.0959C98.1147 41.1918 96.8067 41.7391 95.2453 41.7391C93.56 41.7391 92.3493 41.1489 91.6133 39.9685H91.56V46.54H88.7173V33.0889C88.7173 31.7551 88.6813 30.3862 88.612 28.9822H91.112L91.2707 30.9595H91.324C92.2707 29.4697 93.7093 28.7261 95.6413 28.7261C97.1493 28.7261 98.4093 29.3072 99.42 30.4707C100.427 31.6355 100.932 33.1669 100.932 35.0662ZM98.036 35.1676C98.036 33.9534 97.7547 32.9524 97.192 32.1646C96.5773 31.343 95.7547 30.9322 94.7187 30.9322C94.016 30.9322 93.38 31.161 92.8093 31.6121C92.2387 32.0671 91.8667 32.6612 91.692 33.397C91.6053 33.7402 91.56 34.021 91.56 34.242V36.322C91.56 37.2294 91.8453 37.9951 92.4133 38.6204C92.984 39.2444 93.7253 39.5577 94.64 39.5577C95.7107 39.5577 96.544 39.1547 97.14 38.3513C97.7373 37.5466 98.036 36.4858 98.036 35.1676Z" fill="white"/>
<path id="S" d="M117.385 36.6054C117.385 38.077 116.861 39.2743 115.809 40.1986C114.653 41.2087 113.044 41.7131 110.976 41.7131C109.067 41.7131 107.536 41.3543 106.377 40.6354L107.036 38.3253C108.284 39.0611 109.653 39.4303 111.145 39.4303C112.216 39.4303 113.049 39.1937 113.648 38.7231C114.244 38.2525 114.541 37.6207 114.541 36.8329C114.541 36.1309 114.296 35.5394 113.804 35.0597C113.315 34.58 112.497 34.1341 111.356 33.722C108.249 32.5923 106.697 30.9374 106.697 28.7612C106.697 27.339 107.241 26.1729 108.331 25.2655C109.416 24.3568 110.864 23.9031 112.675 23.9031C114.289 23.9031 115.631 24.1774 116.701 24.7247L115.991 26.9841C114.991 26.4537 113.86 26.1885 112.595 26.1885C111.595 26.1885 110.813 26.429 110.253 26.9074C109.78 27.3351 109.543 27.8564 109.543 28.4739C109.543 29.1577 109.813 29.7232 110.357 30.1678C110.831 30.5786 111.691 31.0232 112.939 31.5029C114.465 32.1022 115.587 32.8029 116.308 33.6063C117.027 34.4071 117.385 35.4094 117.385 36.6054Z" fill="white"/>
<path id="t_2" d="M126.784 31.0621H123.651V37.1188C123.651 38.6593 124.203 39.4289 125.309 39.4289C125.817 39.4289 126.239 39.386 126.572 39.3002L126.651 41.4049C126.091 41.609 125.353 41.7117 124.44 41.7117C123.317 41.7117 122.44 41.3776 121.807 40.7107C121.176 40.0425 120.859 38.9219 120.859 37.3476V31.0595H118.992V28.9795H120.859V26.6954L123.651 25.8738V28.9795H126.784V31.0621Z" fill="white"/>
<path id="o_4" d="M140.921 35.1168C140.921 37.0343 140.359 38.6086 139.236 39.8397C138.059 41.1072 136.496 41.739 134.548 41.739C132.671 41.739 131.176 41.1319 130.061 39.9177C128.947 38.7035 128.389 37.1708 128.389 35.3235C128.389 33.3904 128.963 31.807 130.113 30.5759C131.261 29.3435 132.811 28.7273 134.759 28.7273C136.636 28.7273 138.147 29.3344 139.287 30.5499C140.377 31.729 140.921 33.2513 140.921 35.1168ZM137.972 35.2065C137.972 34.056 137.72 33.0693 137.209 32.2464C136.613 31.2506 135.761 30.754 134.657 30.754C133.515 30.754 132.647 31.2519 132.051 32.2464C131.54 33.0706 131.288 34.0729 131.288 35.2585C131.288 36.409 131.54 37.3957 132.051 38.2173C132.665 39.2131 133.524 39.7097 134.632 39.7097C135.717 39.7097 136.569 39.2027 137.184 38.1913C137.708 37.3528 137.972 36.3557 137.972 35.2065Z" fill="white"/>
<path id="r" d="M150.161 31.4197C149.88 31.369 149.58 31.343 149.265 31.343C148.265 31.343 147.492 31.7109 146.948 32.448C146.475 33.098 146.237 33.9196 146.237 34.9115V41.457H143.396L143.423 32.9108C143.423 31.473 143.387 30.1639 143.316 28.9835H145.792L145.896 31.3703H145.975C146.275 30.55 146.748 29.8896 147.396 29.3943C148.029 28.9484 148.713 28.7261 149.451 28.7261C149.713 28.7261 149.951 28.7443 150.161 28.7768V31.4197Z" fill="white"/>
<path id="e_2" d="M162.875 34.6293C162.875 35.1259 162.841 35.5445 162.771 35.8864H154.243C154.276 37.1188 154.688 38.0613 155.48 38.7113C156.199 39.2924 157.128 39.5836 158.269 39.5836C159.532 39.5836 160.684 39.3873 161.72 38.9934L162.165 40.9174C160.955 41.4322 159.525 41.6883 157.876 41.6883C155.892 41.6883 154.335 41.1189 153.201 39.9814C152.071 38.8439 151.504 37.3164 151.504 35.4002C151.504 33.5191 152.031 31.9526 153.085 30.7033C154.189 29.3695 155.681 28.7026 157.559 28.7026C159.403 28.7026 160.799 29.3695 161.747 30.7033C162.497 31.7628 162.875 33.0732 162.875 34.6293ZM160.164 33.9104C160.183 33.0888 159.997 32.379 159.612 31.7797C159.12 31.0088 158.364 30.624 157.347 30.624C156.417 30.624 155.661 30.9997 155.084 31.7537C154.611 32.353 154.329 33.0719 154.243 33.9091H160.164V33.9104Z" fill="white"/>
</g>
</g>
</svg>
