<svg width="64" height="64" viewBox="0 0 64 64" fill="none" xmlns="http://www.w3.org/2000/svg">
<path d="M24.9958 27H26V46H24.9958C23.8145 46 22.6447 45.754 21.5533 45.276C20.4618 44.798 19.4702 44.0975 18.6348 43.2143C17.7995 42.3311 17.1368 41.2826 16.6848 40.1287C16.2327 38.9747 16 37.738 16 36.4889C16.0055 33.9703 16.9558 31.5568 18.6422 29.7779C20.3286 27.999 22.6136 27 24.9958 27Z" stroke="#5F04C8" stroke-width="3.125" stroke-miterlimit="10" stroke-linejoin="round"/>
<path d="M52 27H53.0042C55.39 27 57.6781 28.0009 59.3652 29.7825C61.0522 31.5641 62 33.9804 62 36.5C62 39.0196 61.0522 41.4359 59.3652 43.2175C57.6781 44.9991 55.39 46 53.0042 46H52V27Z" stroke="#5F04C8" stroke-width="3.125" stroke-miterlimit="10" stroke-linejoin="round"/>
<path d="M20 29V22.7609C20 17.789 22.0011 13.0204 25.5636 9.50265C29.1262 5.98492 33.9589 4.00578 39 4C44.0411 4.00578 48.8738 5.98492 52.4364 9.50265C55.9989 13.0204 58 17.789 58 22.7609V29" stroke="#5F04C8" stroke-width="3.125" stroke-miterlimit="10" stroke-linejoin="round"/>
<path opacity="0.25" d="M46 22.6187L46 62.8594C46 63.7824 44.5566 64.3204 43.5045 63.7915C38.9034 61.4796 27.6547 56.272 7.42532 55.2428C3.23665 55.0292 -7.95214e-07 52.5105 -7.37401e-07 49.4927L-2.26411e-08 12.1819C-1.11092e-08 11.5799 0.651571 11.0819 1.48695 11.0442C6.76668 10.8055 25.1756 11.3423 41.7206 17.5299C44.3563 18.5157 45.9988 20.4827 45.9988 22.6176L46 22.6187Z" fill="url(#paint0_linear_1_16)"/>
<defs>
<linearGradient id="paint0_linear_1_16" x1="0.200302" y1="27.3854" x2="55.0244" y2="49.5899" gradientUnits="userSpaceOnUse">
<stop stop-color="#590AC6"/>
<stop offset="1" stop-color="#0C629D" stop-opacity="0"/>
</linearGradient>
</defs>
</svg>
