<svg width="65" height="64" viewBox="0 0 65 64" fill="none" xmlns="http://www.w3.org/2000/svg">
<path d="M33.6133 3.84009H22.0933V15.3601H33.6133V3.84009Z" stroke="#1DBDF7" stroke-width="3.125" stroke-miterlimit="10" stroke-linejoin="round"/>
<path d="M62.4133 5.40259C63.2763 5.40259 63.9758 4.70303 63.9758 3.84009C63.9758 2.97714 63.2763 2.27759 62.4133 2.27759V5.40259ZM39.3733 5.40259H62.4133V2.27759H39.3733V5.40259Z" fill="#1DBDF7"/>
<path d="M62.4133 16.9226C63.2763 16.9226 63.9758 16.2231 63.9758 15.3601C63.9758 14.4972 63.2763 13.7976 62.4133 13.7976V16.9226ZM39.3733 16.9226H62.4133V13.7976H39.3733V16.9226Z" fill="#1DBDF7"/>
<path d="M62.4133 32.2825C63.2763 32.2825 63.9758 31.5829 63.9758 30.72C63.9758 29.857 63.2763 29.1575 62.4133 29.1575V32.2825ZM20.1733 32.2825H62.4133V29.1575H20.1733V32.2825Z" fill="#1DBDF7"/>
<path d="M43.2133 43.8025C44.0763 43.8025 44.7758 43.1029 44.7758 42.24C44.7758 41.377 44.0763 40.6775 43.2133 40.6775V43.8025ZM20.1733 43.8025H43.2133V40.6775H20.1733V43.8025Z" fill="#1DBDF7"/>
<path opacity="0.25" d="M46.3333 22.6187L46.3333 62.8594C46.3333 63.7824 44.89 64.3204 43.8378 63.7915C39.2367 61.4796 27.988 56.272 7.75863 55.2428C3.56996 55.0292 0.333312 52.5105 0.333312 49.4927L0.333313 12.1819C0.333313 11.5799 0.984884 11.0819 1.82026 11.0442C7.09999 10.8055 25.5089 11.3423 42.0539 17.5299C44.6897 18.5157 46.3321 20.4827 46.3321 22.6176L46.3333 22.6187Z" fill="url(#paint0_linear_1_135)"/>
<defs>
<linearGradient id="paint0_linear_1_135" x1="0.533615" y1="27.3854" x2="55.3577" y2="49.5899" gradientUnits="userSpaceOnUse">
<stop stop-color="#1DBDF7"/>
<stop offset="1" stop-color="#62B6F0" stop-opacity="0"/>
</linearGradient>
</defs>
</svg>
